<svg xmlns="http://www.w3.org/2000/svg" version="1.1" xmlns:xlink="http://www.w3.org/1999/xlink" xmlns:svgjs="http://svgjs.dev/svgjs" width="2000" height="1500" viewBox="0 0 2000 1500"><rect width="2000" height="1500" fill="#000000"></rect><g transform="matrix(0.75,0,0,0.75,249.090909090909,282.7536437246963)"><svg viewBox="0 0 396 247" data-background-color="#ffffff" preserveAspectRatio="xMidYMid meet" height="1247" width="2000" xmlns="http://www.w3.org/2000/svg" xmlns:xlink="http://www.w3.org/1999/xlink"><g id="tight-bounds" transform="matrix(1,0,0,1,0.2400000000000091,-0.09999999999999432)"><svg viewBox="0 0 395.52 247.2" height="247.2" width="395.52"><g><svg></svg></g><g><svg viewBox="0 0 395.52 247.2" height="247.2" width="395.52"><g transform="matrix(1,0,0,1,75.54432,94.65912651973346)"><svg viewBox="0 0 244.43135999999998 57.88174696053306" height="57.88174696053306" width="244.43135999999998"><g><svg viewBox="0 0 244.43135999999998 57.88174696053306" height="57.88174696053306" width="244.43135999999998"><g><svg viewBox="0 0 244.43135999999998 57.88174696053306" height="57.88174696053306" width="244.43135999999998"><g><svg viewBox="0 0 244.43135999999998 57.88174696053306" height="57.88174696053306" width="244.43135999999998"><g id="textblocktransform"><svg viewBox="0 0 244.43135999999998 57.88174696053306" height="57.88174696053306" width="244.43135999999998" id="textblock"><g><svg viewBox="0 0 244.43135999999998 57.88174696053306" height="57.88174696053306" width="244.43135999999998"><g transform="matrix(1,0,0,1,0,0)"><svg width="244.43135999999998" viewBox="4.3 -35.23 190.51 45.12" height="57.88174696053306" data-palette-color="#00bcd4"><path d="M4.3-0.2L4.3-35.16 8.5-35.16 8.5-20.53 9.01-20.48Q10.16-23.02 11.72-24.34L11.72-24.34Q13.53-25.95 16.09-25.95L16.09-25.95Q20.56-25.95 22.92-22.19L22.92-22.19Q25.05-18.7 25.05-13.18L25.05-13.18Q25.05-6.47 21.85-2.83L21.85-2.83Q18.8 0.59 12.82 0.59L12.82 0.59Q9.55 0.59 4.3-0.2L4.3-0.2ZM8.25-14.99L8.25-14.99 8.25-3.47Q10.5-3 12.82-3L12.82-3Q16.77-3 18.75-5.32L18.75-5.32Q20.8-7.71 20.8-12.43L20.8-12.43Q20.8-16.7 19.87-19.02L19.87-19.02Q18.65-22.07 15.72-22.07L15.72-22.07Q13.16-22.07 11.21-19.92L11.21-19.92Q9.84-18.46 8.25-14.99ZM47.43-25.39L51.63-25.39 51.63 0.56Q51.63 2.98 50.84 4.74 50.05 6.49 48.64 7.64 47.24 8.79 45.31 9.34 43.38 9.89 41.11 9.89L41.11 9.89Q39.06 9.89 36.98 9.53 34.91 9.18 33.03 8.54L33.03 8.54Q33.35 7.69 33.69 6.88 34.03 6.08 34.37 5.27L34.37 5.27Q34.96 5.47 35.78 5.69 36.59 5.91 37.51 6.09 38.43 6.27 39.39 6.38 40.35 6.49 41.26 6.49L41.26 6.49Q42.67 6.49 43.82 6.12 44.97 5.74 45.77 4.98 46.58 4.22 47.01 3.11 47.43 2 47.43 0.56L47.43 0.56 47.43-4.96 46.97-4.96Q46.34-3.81 45.51-2.8 44.68-1.78 43.67-1.03 42.67-0.27 41.51 0.16 40.35 0.59 39.06 0.59L39.06 0.59Q37.28 0.59 35.96 0.18 34.64-0.22 33.7-1.01 32.76-1.81 32.16-2.99 31.56-4.17 31.25-5.74L31.25-5.74Q30.98-7.13 30.91-8.72 30.83-10.3 30.83-11.99L30.83-11.99 30.83-25.39 35.03-25.39 35.03-10.82Q35.03-9.23 35.18-7.85 35.32-6.47 35.83-5.46 36.33-4.44 37.3-3.87 38.28-3.3 39.96-3.3L39.96-3.3Q41.21-3.3 42.31-3.89 43.41-4.49 44.33-5.42 45.26-6.35 46.03-7.47 46.8-8.59 47.43-9.67L47.43-9.67 47.43-25.39ZM62.28-25.39L62.28-31.2 66.47-31.2 66.47-25.39 75.02-25.39 75.02-21.85 66.47-21.85 66.47-7.28Q66.47-5.81 66.56-5.04 66.65-4.27 66.99-3.83L66.99-3.83Q67.62-2.95 69.55-2.95L69.55-2.95Q70.62-2.95 71.63-3.17L71.63-3.17Q72.65-3.39 73.51-3.66L73.51-3.66Q74.19-2.17 74.75-0.39L74.75-0.39Q71.87 0.59 68.94 0.59L68.94 0.59Q66.82 0.59 65.53 0.11 64.25-0.37 63.52-1.44L63.52-1.44Q62.76-2.56 62.52-4.13 62.28-5.69 62.28-8.45L62.28-8.45 62.28-21.85 58.61-21.85 58.61-25.39 62.28-25.39ZM98.82-4.71L100.04-1.42Q97.33-0.34 94.95 0.12 92.57 0.59 90.69 0.59L90.69 0.59Q87.81 0.59 85.66-0.33 83.51-1.25 82.08-2.91 80.66-4.57 79.94-6.87 79.22-9.18 79.22-11.96L79.22-11.96Q79.22-13.67 79.46-15.38 79.7-17.09 80.24-18.64 80.78-20.19 81.65-21.53 82.51-22.88 83.76-23.85 85-24.83 86.66-25.39 88.32-25.95 90.45-25.95L90.45-25.95Q95.89-25.95 98.65-22.55 101.41-19.14 101.41-12.79L101.41-12.79 101.41-11.45 83.54-11.45Q83.54-9.4 83.98-7.82 84.42-6.25 85.33-5.16 86.25-4.08 87.65-3.52 89.06-2.95 90.98-2.95L90.98-2.95Q92.06-2.95 93.12-3.11 94.18-3.27 95.18-3.53 96.18-3.78 97.1-4.1 98.01-4.42 98.82-4.71L98.82-4.71ZM83.66-14.82L97.18-14.82Q96.99-18.77 95.29-20.59 93.6-22.41 90.45-22.41L90.45-22.41Q87.3-22.41 85.65-20.59 84-18.77 83.66-14.82L83.66-14.82ZM108.12 0L108.12-35.16 112.32-35.16 112.32-19.85Q113.95-22.63 116.03-24.19L116.03-24.19Q118.4-25.95 120.74-25.95L120.74-25.95Q124.26-25.95 126.21-24.19L126.21-24.19Q127.9-22.68 128.53-19.63L128.53-19.63Q129.02-17.31 129.02-13.38L129.02-13.38 129.02 0 124.82 0 124.82-14.55Q124.82-16.04 124.75-17 124.67-17.97 124.39-19.03 124.11-20.09 123.59-20.69 123.06-21.29 122.12-21.68 121.18-22.07 119.84-22.07L119.84-22.07Q117.52-22.07 115.37-19.87L115.37-19.87Q114-18.48 112.32-15.63L112.32-15.63 112.32 0 108.12 0ZM138.71-35.23L138.71-35.23Q139.83-35.23 140.66-34.45L140.66-34.45Q141.47-33.59 141.47-32.45L141.47-32.45Q141.47-31.27 140.66-30.47L140.66-30.47Q139.83-29.64 138.71-29.64L138.71-29.64Q137.54-29.64 136.71-30.47L136.71-30.47Q135.88-31.25 135.88-32.45L135.88-32.45Q135.88-33.62 136.71-34.45L136.71-34.45Q137.54-35.23 138.71-35.23ZM136.56 0L136.56-25.39 140.76-25.39 140.76 0 136.56 0ZM164.58-25.39L169.13-25.39 160.68 0 155.06 0 146.62-25.39 151.16-25.39 157.87-3.22 164.58-25.39ZM192.22-4.71L193.44-1.42Q190.73-0.34 188.35 0.12 185.97 0.59 184.09 0.59L184.09 0.59Q181.21 0.59 179.06-0.33 176.91-1.25 175.48-2.91 174.05-4.57 173.33-6.87 172.61-9.18 172.61-11.96L172.61-11.96Q172.61-13.67 172.86-15.38 173.1-17.09 173.64-18.64 174.18-20.19 175.04-21.53 175.91-22.88 177.16-23.85 178.4-24.83 180.06-25.39 181.72-25.95 183.84-25.95L183.84-25.95Q189.29-25.95 192.05-22.55 194.81-19.14 194.81-12.79L194.81-12.79 194.81-11.45 176.94-11.45Q176.94-9.4 177.38-7.82 177.81-6.25 178.73-5.16 179.65-4.08 181.05-3.52 182.45-2.95 184.38-2.95L184.38-2.95Q185.46-2.95 186.52-3.11 187.58-3.27 188.58-3.53 189.58-3.78 190.5-4.1 191.41-4.42 192.22-4.71L192.22-4.71ZM177.06-14.82L190.58-14.82Q190.39-18.77 188.69-20.59 186.99-22.41 183.84-22.41L183.84-22.41Q180.7-22.41 179.05-20.59 177.4-18.77 177.06-14.82L177.06-14.82Z" opacity="1" transform="matrix(1,0,0,1,0,0)" fill="#ffffff" class="wordmark-text-0" data-fill-palette-color="primary" id="text-0"></path></svg></g></svg></g></svg></g></svg></g><g></g></svg></g></svg></g></svg></g><g><path d="M83.211 80.995A122.216 122.216 0 0 1 312.309 80.995L307.089 80.995A116.996 116.996 0 0 0 88.431 80.995L83.211 80.995M83.211 166.205A122.216 122.216 0 0 0 312.309 166.205L307.089 166.205A116.996 116.996 0 0 1 88.431 166.205L83.211 166.205" fill="#ffffff" stroke="transparent" data-fill-palette-color="tertiary"></path></g></svg></g><defs></defs></svg><rect width="395.52" height="247.2" fill="none" stroke="none" visibility="hidden"></rect></g></svg></g></svg>